<svg xmlns="http://www.w3.org/2000/svg" viewBox="0 0 594 205" width="594" height="205"><g transform="translate(0,0)"><rect x="14" y="44" width="32" height="140" rx="16" fill="#f4f6f8" stroke="#9aa3ab" stroke-width="2"/><rect x="16" y="70" width="28" height="44" fill="#fff" stroke="#c9cfd4" stroke-width="1"/><line x1="20" y1="80" x2="40" y2="80" stroke="#c9cfd4"/><line x1="20" y1="90" x2="36" y2="90" stroke="#c9cfd4"/><line x1="20" y1="100" x2="38" y2="100" stroke="#c9cfd4"/><rect x="8" y="8" width="44" height="40" rx="6" fill="#d62828"/><rect x="8" y="8" width="44" height="10" rx="5" fill="#fff" opacity=".25"/><rect x="8" y="40" width="44" height="8" fill="#000" opacity=".12"/><text x="30" y="198" font-family="sans-serif" font-size="14" font-weight="700" text-anchor="middle" fill="#4a2c34">1</text></g><g transform="translate(66,0)"><rect x="14" y="44" width="32" height="140" rx="16" fill="#f4f6f8" stroke="#9aa3ab" stroke-width="2"/><rect x="16" y="70" width="28" height="44" fill="#fff" stroke="#c9cfd4" stroke-width="1"/><line x1="20" y1="80" x2="40" y2="80" stroke="#c9cfd4"/><line x1="20" y1="90" x2="36" y2="90" stroke="#c9cfd4"/><line x1="20" y1="100" x2="38" y2="100" stroke="#c9cfd4"/><rect x="8" y="8" width="44" height="40" rx="6" fill="#7b5ea7"/><rect x="8" y="8" width="44" height="10" rx="5" fill="#fff" opacity=".25"/><rect x="8" y="40" width="44" height="8" fill="#000" opacity=".12"/><text x="30" y="198" font-family="sans-serif" font-size="14" font-weight="700" text-anchor="middle" fill="#4a2c34">2</text></g><g transform="translate(132,0)"><rect x="14" y="44" width="32" height="140" rx="16" fill="#f4f6f8" stroke="#9aa3ab" stroke-width="2"/><rect x="16" y="70" width="28" height="44" fill="#fff" stroke="#c9cfd4" stroke-width="1"/><line x1="20" y1="80" x2="40" y2="80" stroke="#c9cfd4"/><line x1="20" y1="90" x2="36" y2="90" stroke="#c9cfd4"/><line x1="20" y1="100" x2="38" y2="100" stroke="#c9cfd4"/><rect x="8" y="8" width="44" height="40" rx="6" fill="#2e9e48"/><rect x="8" y="8" width="44" height="10" rx="5" fill="#fff" opacity=".25"/><rect x="8" y="40" width="44" height="8" fill="#000" opacity=".12"/><text x="30" y="198" font-family="sans-serif" font-size="14" font-weight="700" text-anchor="middle" fill="#4a2c34">3</text></g><g transform="translate(198,0)"><rect x="14" y="44" width="32" height="140" rx="16" fill="#f4f6f8" stroke="#9aa3ab" stroke-width="2"/><rect x="16" y="70" width="28" height="44" fill="#fff" stroke="#c9cfd4" stroke-width="1"/><line x1="20" y1="80" x2="40" y2="80" stroke="#c9cfd4"/><line x1="20" y1="90" x2="36" y2="90" stroke="#c9cfd4"/><line x1="20" y1="100" x2="38" y2="100" stroke="#c9cfd4"/><rect x="8" y="8" width="44" height="40" rx="6" fill="#1d1d1d"/><rect x="8" y="8" width="44" height="10" rx="5" fill="#fff" opacity=".25"/><rect x="8" y="40" width="44" height="8" fill="#000" opacity=".12"/><text x="30" y="198" font-family="sans-serif" font-size="14" font-weight="700" text-anchor="middle" fill="#4a2c34">4</text></g><g transform="translate(264,0)"><rect x="14" y="44" width="32" height="140" rx="16" fill="#f4f6f8" stroke="#9aa3ab" stroke-width="2"/><rect x="16" y="70" width="28" height="44" fill="#fff" stroke="#c9cfd4" stroke-width="1"/><line x1="20" y1="80" x2="40" y2="80" stroke="#c9cfd4"/><line x1="20" y1="90" x2="36" y2="90" stroke="#c9cfd4"/><line x1="20" y1="100" x2="38" y2="100" stroke="#c9cfd4"/><rect x="8" y="8" width="44" height="40" rx="6" fill="#7d7d7d"/><rect x="8" y="8" width="44" height="10" rx="5" fill="#fff" opacity=".25"/><rect x="8" y="40" width="44" height="8" fill="#000" opacity=".12"/><text x="30" y="198" font-family="sans-serif" font-size="14" font-weight="700" text-anchor="middle" fill="#4a2c34">5</text></g><g transform="translate(330,0)"><rect x="14" y="44" width="32" height="140" rx="16" fill="#f4f6f8" stroke="#9aa3ab" stroke-width="2"/><rect x="16" y="70" width="28" height="44" fill="#fff" stroke="#c9cfd4" stroke-width="1"/><line x1="20" y1="80" x2="40" y2="80" stroke="#c9cfd4"/><line x1="20" y1="90" x2="36" y2="90" stroke="#c9cfd4"/><line x1="20" y1="100" x2="38" y2="100" stroke="#c9cfd4"/><rect x="8" y="8" width="44" height="40" rx="6" fill="#1f6fd1"/><rect x="8" y="8" width="44" height="10" rx="5" fill="#fff" opacity=".25"/><rect x="8" y="40" width="44" height="8" fill="#000" opacity=".12"/><text x="30" y="198" font-family="sans-serif" font-size="14" font-weight="700" text-anchor="middle" fill="#4a2c34">6</text></g><g transform="translate(396,0)"><rect x="14" y="44" width="32" height="140" rx="16" fill="#f4f6f8" stroke="#9aa3ab" stroke-width="2"/><rect x="16" y="70" width="28" height="44" fill="#fff" stroke="#c9cfd4" stroke-width="1"/><line x1="20" y1="80" x2="40" y2="80" stroke="#c9cfd4"/><line x1="20" y1="90" x2="36" y2="90" stroke="#c9cfd4"/><line x1="20" y1="100" x2="38" y2="100" stroke="#c9cfd4"/><rect x="8" y="8" width="44" height="40" rx="6" fill="#f2c80f"/><rect x="8" y="8" width="44" height="10" rx="5" fill="#fff" opacity=".25"/><rect x="8" y="40" width="44" height="8" fill="#000" opacity=".12"/><text x="30" y="198" font-family="sans-serif" font-size="14" font-weight="700" text-anchor="middle" fill="#4a2c34">7</text></g><g transform="translate(462,0)"><rect x="14" y="44" width="32" height="140" rx="16" fill="#f4f6f8" stroke="#9aa3ab" stroke-width="2"/><rect x="16" y="70" width="28" height="44" fill="#fff" stroke="#c9cfd4" stroke-width="1"/><line x1="20" y1="80" x2="40" y2="80" stroke="#c9cfd4"/><line x1="20" y1="90" x2="36" y2="90" stroke="#c9cfd4"/><line x1="20" y1="100" x2="38" y2="100" stroke="#c9cfd4"/><rect x="8" y="8" width="44" height="40" rx="6" fill="#f07f13"/><rect x="8" y="8" width="44" height="10" rx="5" fill="#fff" opacity=".25"/><rect x="8" y="40" width="44" height="8" fill="#000" opacity=".12"/><text x="30" y="198" font-family="sans-serif" font-size="14" font-weight="700" text-anchor="middle" fill="#4a2c34">8</text></g><g transform="translate(528,0)"><rect x="14" y="44" width="32" height="140" rx="16" fill="#f4f6f8" stroke="#9aa3ab" stroke-width="2"/><rect x="16" y="70" width="28" height="44" fill="#fff" stroke="#c9cfd4" stroke-width="1"/><line x1="20" y1="80" x2="40" y2="80" stroke="#c9cfd4"/><line x1="20" y1="90" x2="36" y2="90" stroke="#c9cfd4"/><line x1="20" y1="100" x2="38" y2="100" stroke="#c9cfd4"/><rect x="16" y="140" width="28" height="8" fill="#e8e2c8"/><rect x="8" y="8" width="44" height="40" rx="6" fill="#f2c80f"/><rect x="8" y="8" width="44" height="10" rx="5" fill="#fff" opacity=".25"/><rect x="8" y="40" width="44" height="8" fill="#000" opacity=".12"/><text x="30" y="198" font-family="sans-serif" font-size="14" font-weight="700" text-anchor="middle" fill="#4a2c34">9</text></g></svg>